<?xml version="1.0" encoding="iso-8859-1"?>
<!-- Generator: Adobe Illustrator 19.0.0, SVG Export Plug-In . SVG Version: 6.00 Build 0)  -->
<!-- License: CC0. Made by SVG Repo: https://www.svgrepo.com/svg/184882/sesame -->
<svg version="1.1" id="Layer_1" xmlns="http://www.w3.org/2000/svg" xmlns:xlink="http://www.w3.org/1999/xlink" x="0px" y="0px"
	 viewBox="0 0 512.001 512.001" style="enable-background:new 0 0 512.001 512.001;" xml:space="preserve">
<g>
	<path style="fill:#b63c27;" d="M273.357,385.122c0-202.505,225.648,0,225.648,0S273.357,587.626,273.357,385.122z"/>
	<path style="fill:#b63c27;" d="M12.994,385.122c0,0,225.648-202.505,225.648,0S12.994,385.122,12.994,385.122z"/>
</g>
<path style="fill:#e14b30;" d="M255.999,41.188c0,0,202.505,225.648,0,225.648S255.999,41.188,255.999,41.188z"/>
<path style="fill:#6a1e16;" d="M255.999,275.514c-49.985,0-81.409-13.622-93.397-40.488c-13.002-29.14-2.003-71.908,32.689-127.115
	c25.016-39.808,53.067-71.203,54.249-72.52l6.459-7.198l6.459,7.198c1.181,1.317,29.234,32.712,54.249,72.52
	c34.692,55.207,45.691,97.975,32.689,127.115C337.409,261.892,305.986,275.514,255.999,275.514z M256.002,54.391
	c-33.418,39.315-97.514,128.835-77.547,173.566c8.945,20.039,35.034,30.199,77.544,30.199c42.512,0,68.603-10.162,77.547-30.204
	C353.522,183.185,289.424,93.693,256.002,54.391z"/>
<path style="fill:#6a1e16;" d="M331.875,483.807c-9.892,0-18.801-1.76-26.707-5.289c-26.866-11.988-40.488-43.411-40.488-93.396
	s13.622-81.409,40.488-93.396c29.141-13.001,71.908-2.003,127.115,32.689c39.809,25.016,71.203,53.068,72.521,54.249l7.198,6.459
	l-7.198,6.459c-1.318,1.181-32.712,29.234-72.521,54.249C392.056,471.109,358.432,483.807,331.875,483.807z M331.802,303.8
	c-7.146,0-13.734,1.175-19.567,3.778c-20.039,8.945-30.2,35.034-30.2,77.543c0,42.512,10.162,68.603,30.204,77.545
	c5.838,2.605,12.438,3.78,19.586,3.78c47.668,0.002,119.797-52.26,153.975-81.325C451.612,356.064,379.454,303.8,331.802,303.8z"/>
<path style="fill:#6a1e16;" d="M180.125,483.807c-26.558,0-60.177-12.698-100.408-37.977c-39.809-25.016-71.203-53.068-72.521-54.249L0,385.122
	l7.198-6.459c1.318-1.181,32.712-29.234,72.521-54.249c55.207-34.694,97.978-45.692,127.115-32.689
	c26.866,11.988,40.488,43.411,40.488,93.396s-13.622,81.409-40.488-93.396C198.927,482.046,190.013,483.807,180.125,483.807z
	 M26.199,385.12c34.189,29.06,106.346,81.32,153.998,81.322c7.146,0,13.734-1.175,19.567-3.778
	c20.039-8.945,30.2-35.034,30.2-77.543c0-42.512-10.162-68.603-30.204-77.545C154.989,287.601,65.5,351.697,26.199,385.12z"/>
</svg>